<mxfile host="app.diagrams.net" modified="2024-02-12T05:10:43.501Z" agent="Mozilla/5.0 (Windows NT 10.0; Win64; x64) AppleWebKit/537.36 (KHTML, like Gecko) Chrome/121.0.0.0 Safari/537.36" etag="7LTMq3Swvb5mtbK_1bh4" version="23.1.2" type="gitlab">
  <diagram name="Page-1" id="IzfNs0JjH08LJ3R7D9WN">
    <mxGraphModel dx="1148" dy="3080" grid="1" gridSize="10" guides="1" tooltips="1" connect="1" arrows="1" fold="1" page="1" pageScale="1" pageWidth="850" pageHeight="1100" math="0" shadow="0">
      <root>
        <mxCell id="0" />
        <mxCell id="1" parent="0" />
        <mxCell id="fhIcpxZ6sNcRFBGbZp37-1" value="&#xa;&lt;span style=&quot;color: rgb(255, 255, 255); font-family: Helvetica; font-size: 16px; font-style: normal; font-variant-ligatures: normal; font-variant-caps: normal; font-weight: 400; letter-spacing: normal; orphans: 2; text-align: left; text-indent: 0px; text-transform: none; widows: 2; word-spacing: 0px; -webkit-text-stroke-width: 0px; background-color: rgb(251, 251, 251); text-decoration-thickness: initial; text-decoration-style: initial; text-decoration-color: initial; float: none; display: inline !important;&quot;&gt;CarPrice&lt;/span&gt;&#xa;&#xa;" style="strokeWidth=1;shadow=0;dashed=0;align=center;html=1;shape=mxgraph.mockup.containers.browserWindow;rSize=0;strokeColor=#FFFFFF;mainText=,;recursiveResize=0;rounded=0;labelBackgroundColor=none;fontFamily=Verdana;fontSize=12;gradientColor=#e4e2e2;labelPadding=0;strokeOpacity=100;" vertex="1" parent="1">
          <mxGeometry x="2470" y="80" width="1110" height="990" as="geometry" />
        </mxCell>
        <mxCell id="fhIcpxZ6sNcRFBGbZp37-2" value="History" style="strokeWidth=1;shadow=0;dashed=0;align=center;html=1;shape=mxgraph.mockup.containers.anchor;fontSize=17;fontColor=#666666;align=left;" vertex="1" parent="fhIcpxZ6sNcRFBGbZp37-1">
          <mxGeometry x="60" y="10" width="180" height="28" as="geometry" />
        </mxCell>
        <mxCell id="fhIcpxZ6sNcRFBGbZp37-3" value="https://history" style="strokeWidth=1;shadow=0;dashed=0;align=center;html=1;shape=mxgraph.mockup.containers.anchor;rSize=0;fontSize=17;fontColor=#666666;align=left;" vertex="1" parent="fhIcpxZ6sNcRFBGbZp37-1">
          <mxGeometry x="130" y="60" width="250" height="26" as="geometry" />
        </mxCell>
        <mxCell id="fhIcpxZ6sNcRFBGbZp37-4" value="VG-15 Classification" style="html=1;shadow=0;dashed=0;fillColor=#546869;strokeColor=none;fontSize=16;fontColor=#ffffff;align=left;spacing=15;" vertex="1" parent="fhIcpxZ6sNcRFBGbZp37-1">
          <mxGeometry y="110" width="1110" height="60" as="geometry" />
        </mxCell>
        <mxCell id="fhIcpxZ6sNcRFBGbZp37-5" value="Login" style="fillColor=none;strokeColor=none;fontSize=14;fontColor=#ffffff;align=center;" vertex="1" parent="fhIcpxZ6sNcRFBGbZp37-4">
          <mxGeometry width="70" height="50" relative="1" as="geometry">
            <mxPoint x="940" y="5" as="offset" />
          </mxGeometry>
        </mxCell>
        <mxCell id="fhIcpxZ6sNcRFBGbZp37-6" value="Register" style="fillColor=none;strokeColor=none;fontSize=14;fontColor=#ffffff;align=center;" vertex="1" parent="fhIcpxZ6sNcRFBGbZp37-4">
          <mxGeometry x="1020" y="5" width="70" height="50" as="geometry" />
        </mxCell>
        <mxCell id="fhIcpxZ6sNcRFBGbZp37-7" value="Home" style="fillColor=none;strokeColor=none;fontSize=14;fontColor=#ffffff;align=center;" vertex="1" parent="fhIcpxZ6sNcRFBGbZp37-4">
          <mxGeometry x="420" y="5" width="70" height="50" as="geometry" />
        </mxCell>
        <mxCell id="fhIcpxZ6sNcRFBGbZp37-8" value="Predict" style="fillColor=none;strokeColor=none;fontSize=14;fontColor=#ffffff;align=center;" vertex="1" parent="fhIcpxZ6sNcRFBGbZp37-4">
          <mxGeometry x="480" y="5" width="70" height="50" as="geometry" />
        </mxCell>
        <mxCell id="fhIcpxZ6sNcRFBGbZp37-9" value="Visualisation" style="fillColor=none;strokeColor=none;fontSize=14;fontColor=#ffffff;align=center;" vertex="1" parent="fhIcpxZ6sNcRFBGbZp37-4">
          <mxGeometry x="560" y="5" width="70" height="50" as="geometry" />
        </mxCell>
        <mxCell id="fhIcpxZ6sNcRFBGbZp37-10" value="" style="shape=ext;double=1;rounded=0;whiteSpace=wrap;html=1;fillColor=#CCFFFF;" vertex="1" parent="1">
          <mxGeometry x="2470" y="250" width="1110" height="980" as="geometry" />
        </mxCell>
        <mxCell id="fhIcpxZ6sNcRFBGbZp37-13" value="Text" style="text;strokeColor=none;align=center;fillColor=none;html=1;verticalAlign=middle;whiteSpace=wrap;rounded=0;" vertex="1" parent="1">
          <mxGeometry x="2970" y="880" width="60" height="30" as="geometry" />
        </mxCell>
        <mxCell id="fhIcpxZ6sNcRFBGbZp37-14" value="&lt;span style=&quot;color: rgb(0, 0, 0); font-family: Helvetica; font-size: 30px; font-style: normal; font-variant-ligatures: normal; font-variant-caps: normal; font-weight: 700; letter-spacing: normal; orphans: 2; text-align: center; text-indent: 0px; text-transform: none; widows: 2; word-spacing: 0px; -webkit-text-stroke-width: 0px; background-color: rgb(251, 251, 251); text-decoration-thickness: initial; text-decoration-style: initial; text-decoration-color: initial; float: none; display: inline !important;&quot;&gt;History Page&lt;/span&gt;" style="text;whiteSpace=wrap;html=1;" vertex="1" parent="1">
          <mxGeometry x="2870" y="30" width="230" height="60" as="geometry" />
        </mxCell>
        <mxCell id="fhIcpxZ6sNcRFBGbZp37-59" value="Prediction History" style="shape=table;startSize=80;container=1;collapsible=0;childLayout=tableLayout;strokeColor=#314354;fontSize=25;rounded=1;fillColor=#647687;fontColor=#ffffff;fontStyle=1" vertex="1" parent="1">
          <mxGeometry x="2560" y="510" width="890" height="350" as="geometry" />
        </mxCell>
        <mxCell id="fhIcpxZ6sNcRFBGbZp37-60" value="" style="shape=tableRow;horizontal=0;startSize=0;swimlaneHead=0;swimlaneBody=0;strokeColor=inherit;top=0;left=0;bottom=0;right=0;collapsible=0;dropTarget=0;fillColor=none;points=[[0,0.5],[1,0.5]];portConstraint=eastwest;fontSize=16;" vertex="1" parent="fhIcpxZ6sNcRFBGbZp37-59">
          <mxGeometry y="80" width="890" height="90" as="geometry" />
        </mxCell>
        <mxCell id="fhIcpxZ6sNcRFBGbZp37-61" value="&lt;font size=&quot;1&quot; style=&quot;&quot;&gt;&lt;b style=&quot;font-size: 23px;&quot;&gt;Model Type&lt;/b&gt;&lt;/font&gt;" style="shape=partialRectangle;html=1;whiteSpace=wrap;connectable=0;strokeColor=inherit;overflow=hidden;fillColor=none;top=0;left=0;bottom=0;right=0;pointerEvents=1;fontSize=16;" vertex="1" parent="fhIcpxZ6sNcRFBGbZp37-60">
          <mxGeometry width="297" height="90" as="geometry">
            <mxRectangle width="297" height="90" as="alternateBounds" />
          </mxGeometry>
        </mxCell>
        <mxCell id="fhIcpxZ6sNcRFBGbZp37-62" value="&lt;font style=&quot;font-size: 23px;&quot;&gt;&lt;b&gt;Prediction Result&lt;/b&gt;&lt;/font&gt;" style="shape=partialRectangle;html=1;whiteSpace=wrap;connectable=0;strokeColor=inherit;overflow=hidden;fillColor=none;top=0;left=0;bottom=0;right=0;pointerEvents=1;fontSize=16;" vertex="1" parent="fhIcpxZ6sNcRFBGbZp37-60">
          <mxGeometry x="297" width="296" height="90" as="geometry">
            <mxRectangle width="296" height="90" as="alternateBounds" />
          </mxGeometry>
        </mxCell>
        <mxCell id="fhIcpxZ6sNcRFBGbZp37-63" value="&lt;font style=&quot;font-size: 23px;&quot;&gt;&lt;b&gt;Date&lt;/b&gt;&lt;/font&gt;" style="shape=partialRectangle;html=1;whiteSpace=wrap;connectable=0;strokeColor=inherit;overflow=hidden;fillColor=none;top=0;left=0;bottom=0;right=0;pointerEvents=1;fontSize=16;" vertex="1" parent="fhIcpxZ6sNcRFBGbZp37-60">
          <mxGeometry x="593" width="297" height="90" as="geometry">
            <mxRectangle width="297" height="90" as="alternateBounds" />
          </mxGeometry>
        </mxCell>
        <mxCell id="fhIcpxZ6sNcRFBGbZp37-64" value="" style="shape=tableRow;horizontal=0;startSize=0;swimlaneHead=0;swimlaneBody=0;strokeColor=inherit;top=0;left=0;bottom=0;right=0;collapsible=0;dropTarget=0;fillColor=none;points=[[0,0.5],[1,0.5]];portConstraint=eastwest;fontSize=16;" vertex="1" parent="fhIcpxZ6sNcRFBGbZp37-59">
          <mxGeometry y="170" width="890" height="90" as="geometry" />
        </mxCell>
        <mxCell id="fhIcpxZ6sNcRFBGbZp37-65" value="128 x 128" style="shape=partialRectangle;html=1;whiteSpace=wrap;connectable=0;strokeColor=inherit;overflow=hidden;fillColor=none;top=0;left=0;bottom=0;right=0;pointerEvents=1;fontSize=16;" vertex="1" parent="fhIcpxZ6sNcRFBGbZp37-64">
          <mxGeometry width="297" height="90" as="geometry">
            <mxRectangle width="297" height="90" as="alternateBounds" />
          </mxGeometry>
        </mxCell>
        <mxCell id="fhIcpxZ6sNcRFBGbZp37-66" value="Papaya" style="shape=partialRectangle;html=1;whiteSpace=wrap;connectable=0;strokeColor=inherit;overflow=hidden;fillColor=none;top=0;left=0;bottom=0;right=0;pointerEvents=1;fontSize=16;" vertex="1" parent="fhIcpxZ6sNcRFBGbZp37-64">
          <mxGeometry x="297" width="296" height="90" as="geometry">
            <mxRectangle width="296" height="90" as="alternateBounds" />
          </mxGeometry>
        </mxCell>
        <mxCell id="fhIcpxZ6sNcRFBGbZp37-67" value="12/2/2024" style="shape=partialRectangle;html=1;whiteSpace=wrap;connectable=0;strokeColor=inherit;overflow=hidden;fillColor=none;top=0;left=0;bottom=0;right=0;pointerEvents=1;fontSize=16;" vertex="1" parent="fhIcpxZ6sNcRFBGbZp37-64">
          <mxGeometry x="593" width="297" height="90" as="geometry">
            <mxRectangle width="297" height="90" as="alternateBounds" />
          </mxGeometry>
        </mxCell>
        <mxCell id="fhIcpxZ6sNcRFBGbZp37-68" value="" style="shape=tableRow;horizontal=0;startSize=0;swimlaneHead=0;swimlaneBody=0;strokeColor=inherit;top=0;left=0;bottom=0;right=0;collapsible=0;dropTarget=0;fillColor=none;points=[[0,0.5],[1,0.5]];portConstraint=eastwest;fontSize=16;" vertex="1" parent="fhIcpxZ6sNcRFBGbZp37-59">
          <mxGeometry y="260" width="890" height="90" as="geometry" />
        </mxCell>
        <mxCell id="fhIcpxZ6sNcRFBGbZp37-69" value="31 x 31" style="shape=partialRectangle;html=1;whiteSpace=wrap;connectable=0;strokeColor=inherit;overflow=hidden;fillColor=none;top=0;left=0;bottom=0;right=0;pointerEvents=1;fontSize=16;" vertex="1" parent="fhIcpxZ6sNcRFBGbZp37-68">
          <mxGeometry width="297" height="90" as="geometry">
            <mxRectangle width="297" height="90" as="alternateBounds" />
          </mxGeometry>
        </mxCell>
        <mxCell id="fhIcpxZ6sNcRFBGbZp37-70" value="Bean" style="shape=partialRectangle;html=1;whiteSpace=wrap;connectable=0;strokeColor=inherit;overflow=hidden;fillColor=none;top=0;left=0;bottom=0;right=0;pointerEvents=1;fontSize=16;" vertex="1" parent="fhIcpxZ6sNcRFBGbZp37-68">
          <mxGeometry x="297" width="296" height="90" as="geometry">
            <mxRectangle width="296" height="90" as="alternateBounds" />
          </mxGeometry>
        </mxCell>
        <mxCell id="fhIcpxZ6sNcRFBGbZp37-71" value="01/2/2024" style="shape=partialRectangle;html=1;whiteSpace=wrap;connectable=0;strokeColor=inherit;overflow=hidden;fillColor=none;top=0;left=0;bottom=0;right=0;pointerEvents=1;fontSize=16;" vertex="1" parent="fhIcpxZ6sNcRFBGbZp37-68">
          <mxGeometry x="593" width="297" height="90" as="geometry">
            <mxRectangle width="297" height="90" as="alternateBounds" />
          </mxGeometry>
        </mxCell>
        <mxCell id="fhIcpxZ6sNcRFBGbZp37-72" value="" style="verticalLabelPosition=bottom;shadow=0;dashed=0;align=center;html=1;verticalAlign=top;strokeWidth=1;shape=mxgraph.mockup.navigation.scrollBar;strokeColor=#ada9a9;barPos=20;fillColor2=#99ddff;strokeColor2=none;fillColor=#E6E6E6;" vertex="1" parent="1">
          <mxGeometry x="2565" y="885" width="870" height="20" as="geometry" />
        </mxCell>
        <mxCell id="fhIcpxZ6sNcRFBGbZp37-73" value="" style="html=1;verticalLabelPosition=bottom;labelBackgroundColor=#ffffff;verticalAlign=top;shadow=0;dashed=0;strokeWidth=2;shape=mxgraph.ios7.misc.delete;fillColor=#ff0000;strokeColor=#ffffff;sketch=0;" vertex="1" parent="1">
          <mxGeometry x="3470" y="630" width="40" height="46" as="geometry" />
        </mxCell>
        <mxCell id="fhIcpxZ6sNcRFBGbZp37-74" value="" style="html=1;verticalLabelPosition=bottom;labelBackgroundColor=#ffffff;verticalAlign=top;shadow=0;dashed=0;strokeWidth=2;shape=mxgraph.ios7.misc.delete;fillColor=#ff0000;strokeColor=#ffffff;sketch=0;" vertex="1" parent="1">
          <mxGeometry x="3470" y="720" width="40" height="46" as="geometry" />
        </mxCell>
        <mxCell id="fhIcpxZ6sNcRFBGbZp37-75" value="" style="rounded=1;whiteSpace=wrap;html=1;" vertex="1" parent="1">
          <mxGeometry x="2565" y="320" width="870" height="160" as="geometry" />
        </mxCell>
        <mxCell id="fhIcpxZ6sNcRFBGbZp37-76" value="Text" style="text;strokeColor=none;align=center;fillColor=none;html=1;verticalAlign=middle;whiteSpace=wrap;rounded=0;" vertex="1" parent="1">
          <mxGeometry x="3040" y="550" width="60" height="30" as="geometry" />
        </mxCell>
        <mxCell id="fhIcpxZ6sNcRFBGbZp37-77" value="&lt;font style=&quot;font-size: 24px;&quot;&gt;Search and filter function&lt;/font&gt;" style="text;strokeColor=none;align=center;fillColor=none;html=1;verticalAlign=middle;whiteSpace=wrap;rounded=0;" vertex="1" parent="1">
          <mxGeometry x="2740" y="320" width="520" height="60" as="geometry" />
        </mxCell>
        <mxCell id="fhIcpxZ6sNcRFBGbZp37-78" value="Search" style="rounded=0;whiteSpace=wrap;html=1;" vertex="1" parent="1">
          <mxGeometry x="2600" y="370" width="210" height="40" as="geometry" />
        </mxCell>
        <mxCell id="fhIcpxZ6sNcRFBGbZp37-79" value="" style="html=1;verticalLabelPosition=bottom;align=center;labelBackgroundColor=#ffffff;verticalAlign=top;strokeWidth=2;strokeColor=#0080F0;shadow=0;dashed=0;shape=mxgraph.ios7.icons.looking_glass;" vertex="1" parent="1">
          <mxGeometry x="2770" y="375" width="30" height="30" as="geometry" />
        </mxCell>
        <mxCell id="fhIcpxZ6sNcRFBGbZp37-80" value="&lt;font style=&quot;font-size: 18px;&quot;&gt;Filter by model&lt;/font&gt;" style="rounded=1;fillColor=#F1F2F4;strokeColor=none;html=1;whiteSpace=wrap;fontColor=#596780;align=left;fontSize=12;spacingLeft=10;sketch=0;" vertex="1" parent="1">
          <mxGeometry x="2850" y="370" width="280" height="40" as="geometry" />
        </mxCell>
        <mxCell id="fhIcpxZ6sNcRFBGbZp37-81" value="" style="shape=triangle;direction=south;fillColor=#596780;strokeColor=none;html=1;sketch=0;" vertex="1" parent="fhIcpxZ6sNcRFBGbZp37-80">
          <mxGeometry x="1" y="0.5" width="12" height="6" relative="1" as="geometry">
            <mxPoint x="-20" y="-3" as="offset" />
          </mxGeometry>
        </mxCell>
        <mxCell id="fhIcpxZ6sNcRFBGbZp37-82" value="&lt;font style=&quot;font-size: 18px;&quot;&gt;Filter by score category&lt;/font&gt;" style="rounded=1;fillColor=#F1F2F4;strokeColor=none;html=1;whiteSpace=wrap;fontColor=#596780;align=left;fontSize=12;spacingLeft=10;sketch=0;" vertex="1" parent="1">
          <mxGeometry x="3140" y="370" width="280" height="40" as="geometry" />
        </mxCell>
        <mxCell id="fhIcpxZ6sNcRFBGbZp37-83" value="" style="shape=triangle;direction=south;fillColor=#596780;strokeColor=none;html=1;sketch=0;" vertex="1" parent="fhIcpxZ6sNcRFBGbZp37-82">
          <mxGeometry x="1" y="0.5" width="12" height="6" relative="1" as="geometry">
            <mxPoint x="-20" y="-3" as="offset" />
          </mxGeometry>
        </mxCell>
        <mxCell id="fhIcpxZ6sNcRFBGbZp37-84" value="Search" style="rounded=1;fillColor=#0057D8;align=center;strokeColor=none;html=1;whiteSpace=wrap;fontColor=#ffffff;fontSize=12;sketch=0;" vertex="1" parent="1">
          <mxGeometry x="2970" y="430" width="86" height="33" as="geometry" />
        </mxCell>
        <mxCell id="fhIcpxZ6sNcRFBGbZp37-86" value="" style="edgeStyle=orthogonalEdgeStyle;rounded=0;orthogonalLoop=1;jettySize=auto;html=1;" edge="1" parent="1" source="fhIcpxZ6sNcRFBGbZp37-85" target="fhIcpxZ6sNcRFBGbZp37-84">
          <mxGeometry relative="1" as="geometry" />
        </mxCell>
        <mxCell id="fhIcpxZ6sNcRFBGbZp37-85" value="" style="html=1;shadow=0;dashed=0;shape=mxgraph.atlassian.checkbox;fillColor=#008465;strokeColor=none;html=1;sketch=0;" vertex="1" parent="1">
          <mxGeometry x="2945" y="439" width="14" height="14" as="geometry" />
        </mxCell>
      </root>
    </mxGraphModel>
  </diagram>
</mxfile>
